# xmcd CD database file
#
# Track frame offsets:
#	150
#	28799
#	48068
#	64042
#	79640
#	106488
#	123403
#	147249
#	184637
#	211785
#
# Disc length: 3190 seconds
#
# Revision: 1
# Processed by: cddbd v1.5.2PL0 Copyright (c) Steve Scherf et al.
# Submitted via: CDex 1.70beta2
#
DISCID=800c740a
DTITLE=Ani Choying Drolma - Smile
DYEAR=1995
DGENRE=New Age
TTITLE0=Batuwaa
TTITLE1=Phool Kina Phoolcha
TTITLE2=Chulbule
TTITLE3=Aajako Bihaani
TTITLE4=Nirmal Mero Mann
TTITLE5=Kina Khojnu Yahaan
TTITLE6=Haina Hai Aansu
TTITLE7=Jannu Bhaneko
TTITLE8=Muskaan
TTITLE9=Baira Bhaava (phoolko aankhamaa - new version)
EXTD=YEAR: 1995
EXTT0=
EXTT1=
EXTT2=
EXTT3=
EXTT4=
EXTT5=
EXTT6=
EXTT7=
EXTT8=
EXTT9=
PLAYORDER=
